<?xml version="1.0" encoding="UTF-8"?>
<svg id="_영수증_산맥" data-name="영수증 산맥" xmlns="http://www.w3.org/2000/svg" viewBox="0 0 14563.2 1499.86">
  <defs>
    <style>
      .cls-1 {
        fill: none;
        stroke: #231815;
        stroke-miterlimit: 10;
        stroke-width: .25px;
      }
    </style>
  </defs>
  <g>
    <path class="cls-1" d="M12888.35,1234.27c-6.14,1.31-.44-7.87.72-1.2.05.18-.55,1.02-.72,1.2Z"/>
    <path class="cls-1" d="M9628.75,969.55c-.45.42-.18-.28-.26-.47,0,0,.26.47.26.47Z"/>
    <path class="cls-1" d="M12952.05,1234.73c-1.69,2.93-4.55-1.88-2.3-3.62.71.76,2.27,2.51,2.3,3.62Z"/>
    <path class="cls-1" d="M6476.08,874.3c-.25.25-.11-.08-.15-.21,0,0,.15.21.15.21Z"/>
    <path class="cls-1" d="M14372.63,1142.27c-14.44-11.51-26.4.33-36.3,10.37-21.58,8.04-52.8,25.81-73.96,15.35-17.33,2.34-36.7-13.16-54.35-18.76-24.27-2.75-51.72,4.63-77.18,15.66-9.27,3.35-10.89,16.86-21.88,16.44-16.6,3.47-32.28-28.34-48.93-9.65-16.69,5.14-46.74-8.56-54.02,16.23-25.34,1.1-53.07,4.57-79.25,1.96-11.6-2.77-9.93,10.64-18.62,14.61-18.32,7.66-39.51-3.32-56.96,9.63-17.82.93-22.98-24-40.78-21.04-17.91,17.11-42.39-3.66-59,13.95-15.87,24.96-56.09-6-76.92,17.92-22.39,11.22-47.78,10.07-73.16,7.41-14.91,29.2-46.57,8.39-69.44,24.26-15.09.61-20.31-15.73-31.31-21.57-11.47-7.51-20.37,1.97-31.35,4.47-12.89-.44-23.74-2.13-35.87,1.22-53.25,17.36-116.16-51.38-168.23-32.08-114.98,25.59-34.8-31.85-126.32-10.26-11.99-8.35-22.96,4.57-34.09,6.7-7.85-2.07-17.49-7.02-25.69-3.73-9.41,14.62-24.95,14.93-39.85,8.12-13.19,10.91-29.25,7.78-44.86,7.83-14.05,2.43-29.68,14.45-40.68-3.18-3.92,1.57,1.66,5.38.06,7.86-2.75,1.05-2.82,5.03-2.69,7.4.59,1.46,4.95,5.57,1.23,7.71-10.42-14.15-41.46-13.09-62.46-7.41,2.71,3.64-.89,8.18-4.93,5.81-.07-25.27-38.25-36.4-56.42-52.12-22.15-18.03-50.09-43.92-82.14-61.68-14.59-5.91-21.66-31.54-38.11-23.97-13.21,4.5-44.04-4.96-50.95,1.01-2.2,34.1-13.95-24.16-38.5,1.47-65.69,13.93-117.84-10.66-180.3-31-16.37-10.11-29.09,4.15-45.56,3.8-19.47-8.07-49.16,20.61-60.96-8.57-8.46.57-2.02,9.56-4.13,15.34-2.36,2.46,3,3.87,1.52,6.32-2.17,2.32-4.17.11-4.5-2.24.23-2.19-5.35-2.83-7.38-2.4-11.9,4.83-44.45.44-49.47,14.16-.67,4.37-6.88,1.37-4.01-1.91-24.66-26.18-68.4-27.92-89.19-48.33-43.82-16.18-85.5-59.51-132.85-43.73-8.73.29-20.19,6.24-28.5,1.5-2.69,5.29,1.83,12.08-.88,16.92-8.24,4.64-14.14-12.98-24.78-10.52-20.88,15.37-45.04-1.13-65.26,15.16-54.42-16.08-110.78-28.88-162.64-24.26-14.25-2.96-24.3,9.31-37.34,7.7-13.08-6.91-16.36-9.75-31.12-6.51-16.66,10.57-40.55,14.9-60.12,14.06-11.94-9.98-55.39-1.86-62.95,12.7-2.37,2.04-3.85-.67-3.17-2.73-16.1,9.3-29.49-18.48-45.3-3.01-23.78,7.31-47.84-3.43-71.93-5.27-7.59,1.84-9.51-15.62-17.86-7.26-16.39,9.85-34.19-11.75-50.41.54-22.57-10.91-57.2-20.08-86.17-14.39-23.77,20.47-27.35-16.35-48.08-17.27-15.14,9.71-32.79,6.67-49.71,6.99-25.53-3.93-42.27-8.71-58.34-24.1-8.81-2.41-16.16,8.8-24.89,4.45-8.41-6.11-16.35-12.06-23.64-16.94-24-.88-53.11-16.43-75.85-1.4-16.66,9.77-22.62-15.74-37-7.21-9.66,17.68-30.25,23.83-48.61,29.68-10.27,24.24-43.19,19.2-56.45,40.81-9.86-16.72-25.6-10.23-40.08-4.93-17.05,2.22-37.99-2.56-54.62-6.2-2-45.67-42.35-69.5-84.74-47.5-19.56,2.88-25.22-23.2-44.31-21.45-17.54,17.57-44.8-3.21-61.62,15.45-49.17-12.07-94.98-32.68-144.04-45.36-12.96,14.79-30.65,5.62-47.13,8.35-13.71,6.19-25.72,12.04-37.22-3.84-29.39,8.19-64.62,24.99-94.68,7.72-49.26,8.09-89.08,23.76-138.8,35.88-11.15.53-23.72-14.05-35.19-7.05-80.51,23.49-164.45,28.12-248.43,28.62-35.11-26.04-79.49-10.52-117.16-10.08-30.8,3.93-63.78,5.39-94.57,7.67-4.53,2.09,1.37,7.23-1.52,10.33-3.39,1.35-.92,14.13-5.17,9.28-44.36-9.1-61.09,11.64-95.85-27.21-67.9-30.28-111.48-109.96-193.05-93.92-3.37,1.98-9.41-6.73-9.83-.6-1.51,4.62-3.14,8.33-1.3,13.08-5.7,6.05-4.07.61-9.96-1.47-24.92-8.03-59.79,26.06-89.41,10.05-11.84-42.14-62.62-4.95-87.33-2.34-41.58-30.57-37.32,45.98-84,65.1-3.09-8.31-16.86,4-19.75-5.25-4.07-10.15-6.62-20.53-20.05-15.39-36.19-7.73-48.12,91.84-78,64.93-14.26-16.74-23.48-.75-39.41-.5-16.59-1.64-29.03-1.87-43.37,7.32-38.03-6.53-96.09-39.44-130.32-30.82-92.26,12.45-38.48,13.95-108.44-18.27-21.86,2.89-36.55,20.89-59.93,6.99-15.69,2.82-22.99-16.94-37.44-17.68-30.06,15.97-62.73-40.88-91.28-11.22-39.9,18.99-58.55-30.03-95.04-33.67-63.85-50.7-94.41,52.83-153.04,1.53-16.43-6.98-51.99-33.82-67.76-21.73-52.91,54.74-96.69-76.59-173.06.65-22.8,28.36-26.85-13.3-51.37,4.18-69.78,20.74-131.56-20.83-199.8-33.89-15.94,14.67-23.03,3.35-43.2,7.05-13.65-.69-13.25,13.04-30.12,4.15-5.32-3.42-11.27-12.81-13.72-1.53,19.39,24.95-53.11,23.75-67.41,24.66-52.37-42.1-102.38,14.73-156.28.62-20.42,1-35.34-24.04-57.11-10.57-13.56,6.06-43.81-4.15-43.45,14.24,9.48,22.25-8.95,8.05-21.76,5.85-49.65,6.37-93.49,22.98-143.82,25.79-22.26-9.34-5.2-14.84-37.16-9.15-47.42,15.74-94.15-18.81-134.69-38.97-24.69,14.58-53.87,17.46-81.79,10.59-11.31,29.4-40.93,13.75-62.94,22.57-22.26,14.59-30.63-28.51-51.67-16.52-10.76,10.91-27.19,2.44-39.36,3.96-9.94.99-16.77,12.24-27.08,7.3-47.6-11.42-86.27-16.94-131.59-45.71-54.75,10.66-108.88,5.49-162.54-4.42-23.91,10.05-40.03,5.42-59.5-10.29-61.72.38-126.3,34.54-179.47-1.11-11.78,11.54-29,7-42.9,5.93-72.95,23.64-134.84-63.75-226.34-20.38-17.31.51-22.05-23.38-39.49-22.36-21.55,11.71-69.66,15.04-76.11-13.72-13.65-50.2-51-46.62-91.11-34.75-16.02-14.63-34.75-10.15-54-13.47-72.42-40.51-148.99-84.35-233.88-58.36-21.54-12.61-37.43,11.66-54.1,21.75-47.81,6.4-95.82.28-142.22,14.17-76.5,13.12-159.86,17.86-235.34,20.01-35.64,32.23-87.31,30.05-132.24,21.51-19.24-8.63-37.89-18.38-59.75-15.12-24.93-8.78-47.79,16.48-62.05-17.2-10.53-10.53-27.66.3-37.06,3.61-35.47-15.04-78.05-18.98-109.75-41.45-23.21-22.54-56.58-27.74-85.83-30.59-36.69,2.34-80.32-8.85-109.28,21.39-99.5,13.89-214.07,9.47-312.47,41.24-14.9,1.62-15.61-24.2-30.81-24.77-30.06,9.29-63.94,7.16-91.96-8.57-45.58-28.46-64.04,49.89-113.15,35.28-27.89-10.76-55.1-30.25-86.89-30.08-44.99,64.07-122.95-58.41-176.15,20.54-11.6,26.09-35.27,1.45-52.27,12.91-47.9,2.28-97.4,44.09-139.86,27.43-9.09-22.53-31.77-4.92-48.17-4.5-78.34-3.15,7.68,39.99-103.61,20.07-6.8.57-13,6.81-15.79,13.01-4.98,16.52-26.73,16.46-39.51,12.57-17.72.81-32.09,16.81-45.67-1.61-46.61,19.68-53.14-34.07-99.75.51-9.49,1.38-20.22-3.12-28.04-8.01.58-29.31-32.65-27.49-49.7-13.98-74.79-.66-11.4-29.81-109.44-5.16-63.35-38.9-124.53-59.24-186.55-97.65-15.98,4.65-33.43,8.52-50.33,10.42-14.78,4.45-15.53-17.71-31.31-14.5-116.91,40.7-150.5-55.79-275.28-15.98-9.4-3.77-16.59-13.25-24.82-18.26-6.97-.98-30.75,3.19-24.78,18.62-14.19,20.08-32.44,37.62-53.99,48.36-1.87-7.09-11.4-2.94-17.36-4.28-2.56-2.08-3.61-6.55-2.55-9.63,2.76-3-7.14-5.2-5.74-8.46,5.69-14.45-17.54-3.15-19.48-12.07-20.68,16.06-48.73,30.29-50.59,57.88-16.51,24.79-39.37-15.13-57.11,3.17-62.65,8.82-119.57-2.19-182.14,7.15-15.58,18.72-33.41-12.93-48.23-14.34-29.66,7.79-60.66,8.18-89.62,12.05-20.1,3.97-42.63,10.27-61.42,3.11-7.08-8.83-23.64-23.76-35.97-9.02-14.64,4.27-29.75-4.24-43.85,2.79-4.16,5.01-10.62,7.19-16.79,4.05-48.34-8.86-97.46-47.89-143.46-27.83-20.46-11.62-42.69,16.23-60.27-2.91-17.39-3.46-46.3,10.38-64.2,8.36-66.51-25.99-127.27-67.52-193.61-92.97-23.52,8.17-54.66,16.31-75,.3-30.98,18.71-68.24-5.06-100.71,5.48-26.64-11.43-55.67-3.85-80.65-.77-13.83-3.91-16.27-22.25-32.55-21.25-60.51,28.66-126.06-4.37-188.22-21.45-20.97,14.95-45.07.95-66.4,15.11-17.68-4.58-29.04-19.49-47.84-19.69-17.06-2.34-36.47-21.76-50.25-7.31-17.95,6.4-40.49-4.46-56.41,10.34-16.47-3.03-19.16-23.28-36.03-25.5-11.62,12.66-31.08,7.1-45.78,7.65-26.84,16.34-56.51-5.18-84.76-12.36M199.4,543.03"/>
  </g>
  <polyline class="cls-1" points="14372.63 1142.27 14372.63 1486.1 199.4 1486.1 199.4 543.03"/>
</svg>